# xmcd CD database file
#
# Track frame offsets:
#	150
#	14496
#	26624
#	40572
#	57418
#	72318
#	87024
#	98615
#	111707
#	127979
#	144911
#	160661
#
# Disc length: 2318 seconds
#
# Revision: 0
# Processed by: cddbd v1.5.2PL0 Copyright (c) Steve Scherf et al.
# Submitted via: CDex 1.51
#
DISCID=96090c0c
DTITLE=Hanna&Daana - Die grossen Erfoge
DYEAR=1900
DGENRE=Country
TTITLE0=Hanna&Daana - Its Countrytime in Germany01
TTITLE1=Hanna&Daana - Leb ein bischen mehr02
TTITLE2=Hanna&Daana - Hey Hey Hey Easy Rider 03
TTITLE3=Hanna&Daana - Lieben heisst verzeihen 04
TTITLE4=Hanna&Daana - Wenn du wieder da bist 05
TTITLE5=Hanna&Daana - Ich könnt mich immer neu verlieben 06
TTITLE6=Hanna&Daana - Eine Frau weiss genau 07
TTITLE7=Hanna&Daana - Du musst das Leben eben nehmen 08
TTITLE8=Hanna&Daana - Er ist so wie du 09
TTITLE9=Hanna&Daana - Küsse wie Feuer 10
TTITLE10=1 - Der Mann unter der Brücke 11
TTITLE11=Kein Künstler - Zeit zu geh'n 12
EXTD=
EXTT0=
EXTT1=
EXTT2=
EXTT3=
EXTT4=
EXTT5=
EXTT6=
EXTT7=
EXTT8=
EXTT9=
EXTT10=
EXTT11=
PLAYORDER=
